<svg width="24" height="24" viewBox="0 0 24 24" fill="none" xmlns="http://www.w3.org/2000/svg">
    <path d="M12 15.5C13.933 15.5 15.5 13.933 15.5 12C15.5 10.067 13.933 8.5 12 8.5C10.067 8.5 8.5 10.067 8.5 12C8.5 13.933 10.067 15.5 12 15.5Z" stroke="currentColor" stroke-width="2"/>
    <path d="M19.4 15A1.8 1.8 0 0 0 19.76 17L19.83 17.07A2.18 2.18 0 1 1 16.75 20.15L16.68 20.08A1.8 1.8 0 0 0 14.68 19.72A1.8 1.8 0 0 0 13.6 21.37V21.57A2.18 2.18 0 1 1 9.24 21.57V21.47A1.8 1.8 0 0 0 8.06 19.82A1.8 1.8 0 0 0 6.06 20.18L5.99 20.25A2.18 2.18 0 1 1 2.91 17.17L2.98 17.1A1.8 1.8 0 0 0 3.34 15.1A1.8 1.8 0 0 0 1.69 14.02H1.49A2.18 2.18 0 1 1 1.49 9.66H1.59A1.8 1.8 0 0 0 3.24 8.48A1.8 1.8 0 0 0 2.88 6.48L2.81 6.41A2.18 2.18 0 1 1 5.89 3.33L5.96 3.4A1.8 1.8 0 0 0 7.96 3.76H8.06A1.8 1.8 0 0 0 9.14 2.11V1.91A2.18 2.18 0 1 1 13.5 1.91V2.01A1.8 1.8 0 0 0 14.58 3.66A1.8 1.8 0 0 0 16.58 3.3L16.65 3.23A2.18 2.18 0 1 1 19.73 6.31L19.66 6.38A1.8 1.8 0 0 0 19.3 8.38V8.48A1.8 1.8 0 0 0 20.95 9.56H21.15A2.18 2.18 0 1 1 21.15 13.92H21.05A1.8 1.8 0 0 0 19.4 15Z" stroke="currentColor" stroke-width="1.7" stroke-linejoin="round"/>
</svg>
